<svg xmlns="http://www.w3.org/2000/svg" width="128" height="128" viewBox="0 0 128 128"><svg xmlns="http://www.w3.org/2000/svg" xmlns:xlink="http://www.w3.org/1999/xlink" width="128" height="117" data-background-color="#ffffff" transform="translate(12.76 17.022) scale(.80469)" viewBox="0 0 95 87"><svg width="95.481" height="87.178" transform="translate(-.24 -.09)" viewBox="0 0 95.481 87.178"><svg width="95.481" height="87.178" viewBox="0 0 95.481 87.178"><svg width="95.481" height="87.178" viewBox="0 0 95.481 87.178"><svg width="95.481" height="87.178" viewBox="0 0 95.481 87.178"><svg width="95.481" height="87.178" viewBox="0 0 95.481 87.178"><svg width="95.481" height="87.178" viewBox="0 0 95.481 87.178"><svg xmlns="http://www.w3.org/2000/svg" xmlns:xlink="http://www.w3.org/1999/xlink" xml:space="preserve" width="95.481" height="87.178" class="icon-icon-0" data-fill-palette-color="accent" viewBox="9.59 13.103 80.821 73.793"><path d="m36.382 37.362 18.509 2.669 3.345-26.928-14.723 7.878" data-fill-palette-color="accent"/><path d="m66.866 52.945-6.341-9.96-26.486-3.848 2.716-26.034-16.072 8.149-8.602 19.695L9.59 71.956l10.64-2.714 1.131 14.26 14.941-5.887 2.49 9.281 14.49-12.676 26.713-5.429 9.282-6.112 1.134-6.338-23.545-3.396zm-18.242 5.118-5.555-.586-6.375-6.783 12.748 1.402 1.941 3.51-2.759 2.457z" data-fill-palette-color="accent"/></svg></svg></svg></svg></svg></svg></svg></svg></svg>